<?xml version="1.0" encoding="utf-8"?>
<!-- Generator: Adobe Illustrator 19.2.0, SVG Export Plug-In . SVG Version: 6.00 Build 0)  -->
<svg version="1.1" id="Layer_1" xmlns="http://www.w3.org/2000/svg" xmlns:xlink="http://www.w3.org/1999/xlink" x="0px" y="0px"
	 viewBox="0 0 263.8 22.4" style="enable-background:new 0 0 263.8 22.4;" xml:space="preserve">
<style type="text/css">
	.st0{fill:#BE1622;}
	.st1{fill:#010202;}
	.st2{fill:#FFFFFF;}
</style>
<g>
	<path class="st2" d="M43.3,0.6l2.9,9.9c0.5,1.8,0.9,3.5,1.2,5.2h0.1c0.3-1.7,0.7-3.3,1.2-5.2l2.7-9.9h7l-7.9,21.2h-6.6L36.1,0.6
		H43.3z"/>
	<path class="st2" d="M81.4,15c0,2.8,0.1,5,0.2,6.8h-5.7l-0.3-3h-0.1c-0.8,1.3-2.8,3.5-6.6,3.5c-4.3,0-7.5-2.7-7.5-9.3V0.6h6.6V12
		c0,3.1,1,5,3.3,5c1.8,0,2.9-1.3,3.3-2.3c0.2-0.4,0.3-0.9,0.3-1.4V0.6h6.6V15z"/>
	<path class="st2" d="M85,18.1l6.7-8.4c1.2-1.4,2.2-2.5,3.3-3.7V5.9h-9.3V0.6h17.4v4l-6.4,8c-1.2,1.3-2.3,2.7-3.5,3.9v0.1h10.2v5.3
		H85V18.1z"/>
	<path class="st0" d="M107.1,7.4c0-2.6-0.1-4.9-0.2-6.8h5.7l0.3,3h0.1c0.9-1.4,3-3.4,6.6-3.4c4.3,0,7.6,2.9,7.6,9.2v12.6h-6.6V10.1
		c0-2.7-1-4.6-3.3-4.6c-1.8,0-2.9,1.3-3.4,2.5c-0.2,0.4-0.2,1-0.2,1.7v12.3h-6.6V7.4z"/>
	<path class="st0" d="M137.6,13.3c0.2,2.7,2.9,4,6,4c2.3,0,4.1-0.3,5.9-0.9l0.9,4.5c-2.2,0.9-4.8,1.3-7.7,1.3
		c-7.2,0-11.3-4.2-11.3-10.8c0-5.4,3.3-11.3,10.7-11.3c6.9,0,9.5,5.3,9.5,10.6c0,1.1-0.1,2.1-0.2,2.6H137.6z M145.4,8.8
		c0-1.6-0.7-4.3-3.7-4.3c-2.8,0-3.9,2.6-4.1,4.3H145.4z"/>
	<path class="st0" d="M159.8,0.6l1.7,8.7c0.4,2.2,0.8,4.5,1.2,7h0.1c0.4-2.4,1-4.8,1.5-6.9l2.3-8.8h5.2l2.1,8.5
		c0.6,2.4,1.2,4.8,1.6,7.2h0.1c0.3-2.4,0.7-4.8,1.3-7.3l1.8-8.4h6.5l-6.5,21.2h-6.2l-2-7.4c-0.6-2.1-1-4-1.4-6.6H169
		c-0.4,2.6-0.8,4.6-1.3,6.6l-2.1,7.5h-6.2l-6.2-21.2H159.8z"/>
	<path class="st0" d="M187.5,16.1c1.2,0.7,3.7,1.6,5.7,1.6c2,0,2.8-0.7,2.8-1.7c0-1.1-0.7-1.7-3.1-2.5c-4.4-1.5-6.1-3.9-6.1-6.4
		c0-4,3.4-7,8.6-7c2.5,0,4.6,0.6,6,1.3l-1.1,4.6c-1-0.5-2.8-1.2-4.6-1.2c-1.6,0-2.5,0.7-2.5,1.7s0.8,1.6,3.4,2.5
		c4,1.4,5.7,3.5,5.7,6.6c0,4-3.1,6.9-9.2,6.9c-2.8,0-5.3-0.7-6.9-1.5L187.5,16.1z"/>
	<path class="st2" d="M206,19.6c0-1.6,1.1-2.7,2.6-2.7s2.6,1.1,2.6,2.7c0,1.6-1,2.7-2.7,2.7C207,22.3,206,21.1,206,19.6z"/>
	<path class="st2" d="M224.8,21.3c-0.7,0.3-2.1,0.8-4,0.8c-4.2,0-7-2.9-7-7.2c0-4.3,3-7.5,7.5-7.5c1.5,0,2.8,0.4,3.5,0.8l-0.6,1.9
		c-0.6-0.3-1.6-0.7-3-0.7c-3.2,0-5,2.4-5,5.3c0,3.2,2.1,5.2,4.9,5.2c1.4,0,2.4-0.3,3.1-0.7L224.8,21.3z"/>
	<path class="st2" d="M240.3,14.7c0,5.2-3.6,7.4-7,7.4c-3.8,0-6.7-2.8-6.7-7.2c0-4.7,3.1-7.4,7-7.4C237.6,7.5,240.3,10.5,240.3,14.7
		z M229.2,14.9c0,3.1,1.7,5.4,4.2,5.4c2.4,0,4.3-2.3,4.3-5.4c0-2.4-1.2-5.4-4.2-5.4C230.5,9.4,229.2,12.2,229.2,14.9z"/>
	<path class="st2" d="M243.5,11.6c0-1.5-0.1-2.6-0.1-3.8h2.2l0.1,2.3h0.1c0.8-1.3,2.1-2.6,4.4-2.6c1.9,0,3.3,1.2,3.9,2.8h0.1
		c0.4-0.8,1-1.4,1.6-1.8c0.8-0.6,1.7-1,3.1-1c1.9,0,4.6,1.2,4.6,6.1v8.2h-2.5v-7.9c0-2.7-1-4.3-3-4.3c-1.5,0-2.6,1.1-3,2.3
		c-0.1,0.4-0.2,0.8-0.2,1.3v8.7h-2.5v-8.4c0-2.2-1-3.8-2.9-3.8c-1.6,0-2.8,1.3-3.2,2.5c-0.1,0.3-0.2,0.8-0.2,1.2v8.4h-2.5V11.6z"/>
</g>
<g>
	<g>
		<g>
			<g>
				<path class="st2" d="M16.7,7.4h-4.4c-0.6,0-1.1-0.2-1.5-0.6c-0.4-0.4-0.6-1-0.6-1.5l0-4.5V0.6H9.9H2c-1.1,0-2,0.9-2,2v17.4
					c0,1.1,0.9,2,2,2h13c1.1,0,2-0.9,2-2l0-12.2V7.4H16.7z M2.2,3.4c0-0.2,0.1-0.3,0.2-0.5c0.1-0.1,0.3-0.2,0.5-0.2H8v3.4
					C8,7.1,8.3,8,9,8.6c0.6,0.6,1.5,1,2.5,1h3.3l0,9.4c0,0.4-0.3,0.7-0.7,0.7H2.8c-0.4,0-0.7-0.3-0.7-0.7V3.4z"/>
			</g>
		</g>
		<g>
			<g>
				<path class="st0" d="M11.5,1.1v4c0,0.3,0.1,0.5,0.3,0.7C12,5.9,12.3,6,12.6,6l4,0L11.5,1.1z"/>
			</g>
		</g>
	</g>
	<g>
		<path class="st2" d="M4.3,6.8C4,6.8,3.8,6.6,3.8,6.3V5c0-0.2,0.2-0.4,0.4-0.4h1.5C6,4.6,6.2,4.8,6.2,5v1.3c0,0.2-0.2,0.4-0.4,0.4
			H4.3z"/>
	</g>
	<g>
		<path class="st2" d="M4.3,17.4c-0.2,0-0.4-0.2-0.4-0.4v-1.3c0-0.2,0.2-0.4,0.4-0.4h8.4c0.2,0,0.4,0.2,0.4,0.4v1.3
			c0,0.2-0.2,0.4-0.4,0.4H4.3z"/>
	</g>
	<g>
		<path class="st2" d="M4.3,12.3c-0.2,0-0.4-0.2-0.4-0.4v-1.3c0-0.2,0.2-0.4,0.4-0.4h3.3c0.2,0,0.4,0.2,0.4,0.4v1.3
			c0,0.2-0.2,0.4-0.4,0.4H4.3z"/>
	</g>
</g>
<rect x="26.6" y="0.6" class="st2" width="0.5" height="21.3"/>
</svg>
